<?xml version="1.0" encoding="utf-8"?>
<!-- Generator: Adobe Illustrator 23.0.1, SVG Export Plug-In . SVG Version: 6.00 Build 0)  -->
<svg version="1.1" id="图层_1" xmlns="http://www.w3.org/2000/svg" xmlns:xlink="http://www.w3.org/1999/xlink" x="0px" y="0px"
	 viewBox="0 0 185 46.3" style="enable-background:new 0 0 185 46.3;" xml:space="preserve">
<style type="text/css">
	.st0{fill:#FFFFFF;}
	.st1{fill:#FF1B1B;}
</style>
<path d="M160.7,45.1H23.8c-12.2,0-22-9.8-22-22v0c0-12.2,9.8-22,22-22h136.9c12.2,0,22,9.8,22,22v0
	C182.7,35.3,172.8,45.1,160.7,45.1z"/>
<g>
	<g>
		<path class="st0" d="M34.8,10v25.3H31V10H34.8z"/>
	</g>
	<g>
		<path class="st0" d="M99.7,10l8.8,20.3h0.1l8.8-20.3h4.6v25.3h-3.9V17.2h-0.1l-7.8,18.1h-3.3l-7.8-18.1H99v18.1h-3.9V10H99.7z"/>
		<path class="st0" d="M145.1,10v3.3h-14.3v7.4h13.5v3.3h-13.5v8h14.9v3.3h-18.8V10H145.1z"/>
		<path class="st0" d="M153.5,10v25.3h-3.8V10H153.5z"/>
	</g>
	<g>
		<g>
			<g>
				<path class="st1" d="M73.5,8.6c1.5,0,3,0.4,4.3,1.2c1.3,0.8,2.3,1.8,3.1,3.1c0.8,1.3,1.1,2.8,1.1,4.3c0,1.1-0.2,2.2-0.6,3.3
					c-0.4,1.1-1.1,2-1.9,2.8L65.5,37.7L51.4,23.4c-0.8-0.8-1.4-1.8-1.9-2.8c-0.4-1.1-0.6-2.2-0.6-3.3c0-1.6,0.4-3,1.1-4.3
					c0.7-1.3,1.8-2.4,3.1-3.1c1.3-0.8,2.8-1.2,4.3-1.2c2.3,0,4.4,0.9,6,2.5l2,2l2-2c0.8-0.8,1.7-1.5,2.8-1.9
					C71.3,8.8,72.4,8.6,73.5,8.6L73.5,8.6z M73.5,8.6"/>
			</g>
		</g>
	</g>
</g>
</svg>
