<?xml version="1.0" encoding="utf-8"?>
<!-- Generator: Adobe Illustrator 24.0.1, SVG Export Plug-In . SVG Version: 6.00 Build 0)  -->
<svg version="1.1" id="图层_1" xmlns="http://www.w3.org/2000/svg" xmlns:xlink="http://www.w3.org/1999/xlink" x="0px" y="0px"
	 viewBox="0 0 1024 1024" style="enable-background:new 0 0 1024 1024;" xml:space="preserve">
<style type="text/css">
	.st0{fill:none;stroke:#000000;stroke-width:40;stroke-miterlimit:10;}
	.st1{fill:none;stroke:#000000;stroke-width:40;stroke-linecap:round;stroke-linejoin:round;stroke-miterlimit:10;}
	.st2{stroke:#000000;stroke-width:40;stroke-linecap:round;stroke-linejoin:round;stroke-miterlimit:10;}
	.st3{fill:none;}
	.st4{fill:none;stroke:#070102;stroke-width:40;stroke-linecap:round;stroke-linejoin:round;stroke-miterlimit:10;}
	.st5{fill:none;stroke:#000000;stroke-width:40;stroke-linecap:round;stroke-miterlimit:10;}
	.st6{fill:#CCCCCC;}
</style>
<path d="M915.02,138.27H118.04c-28.45,0-51.51,23.06-51.51,51.51v447.31c0,28.45,23.06,51.51,51.51,51.51h272.32l126.17,188.53
	L642.7,688.6h272.32c28.45,0,51.51-23.06,51.51-51.51V189.78C966.53,161.33,943.47,138.27,915.02,138.27z M784.41,526.31H248.65
	c-11.05,0-20-8.95-20-20c0-11.05,8.95-20,20-20h535.76c11.05,0,20,8.95,20,20C804.41,517.36,795.46,526.31,784.41,526.31z
	 M784.41,340.55H248.65c-11.05,0-20-8.95-20-20s8.95-20,20-20h535.76c11.05,0,20,8.95,20,20S795.46,340.55,784.41,340.55z"/>
</svg>
