<?xml version="1.0" encoding="utf-8"?>
<!-- Generator: Adobe Illustrator 24.0.1, SVG Export Plug-In . SVG Version: 6.00 Build 0)  -->
<svg version="1.1" id="图层_1" xmlns="http://www.w3.org/2000/svg" xmlns:xlink="http://www.w3.org/1999/xlink" x="0px" y="0px"
	 viewBox="0 0 1024 1024" style="enable-background:new 0 0 1024 1024;" xml:space="preserve">
<style type="text/css">
	.st0{fill:none;stroke:#000000;stroke-width:40;stroke-miterlimit:10;}
	.st1{fill:none;stroke:#000000;stroke-width:40;stroke-linecap:round;stroke-linejoin:round;stroke-miterlimit:10;}
	.st2{stroke:#000000;stroke-width:40;stroke-linecap:round;stroke-linejoin:round;stroke-miterlimit:10;}
	.st3{fill:none;}
	.st4{fill:none;stroke:#070102;stroke-width:40;stroke-linecap:round;stroke-linejoin:round;stroke-miterlimit:10;}
	.st5{fill:none;stroke:#000000;stroke-width:40;stroke-linecap:round;stroke-miterlimit:10;}
	.st6{fill:#CCCCCC;}
</style>
<g>
	<g>
		<path d="M520.69,899.13c-6.67,0-12.91-3.33-16.62-8.88L383.84,710.6H122.2c-39.43,0-71.51-32.08-71.51-71.51V191.78
			c0-39.43,32.08-71.51,71.51-71.51h796.98c39.43,0,71.51,32.08,71.51,71.51v447.31c0,39.43-32.08,71.51-71.51,71.51H657.54
			L537.31,890.26C533.6,895.8,527.36,899.13,520.69,899.13z M122.2,160.27c-17.37,0-31.51,14.13-31.51,31.51v447.31
			c0,17.37,14.13,31.51,31.51,31.51h272.32c6.67,0,12.91,3.33,16.62,8.88l109.55,163.7l109.55-163.7c3.71-5.55,9.95-8.88,16.62-8.88
			h272.32c17.37,0,31.51-14.13,31.51-31.51V191.78c0-17.37-14.13-31.51-31.51-31.51H122.2z"/>
	</g>
	<g>
		<g>
			<path d="M788.57,342.55H252.81c-11.05,0-20-8.95-20-20s8.95-20,20-20h535.76c11.05,0,20,8.95,20,20S799.62,342.55,788.57,342.55z
				"/>
		</g>
		<g>
			<path d="M788.57,528.32H252.81c-11.05,0-20-8.95-20-20s8.95-20,20-20h535.76c11.05,0,20,8.95,20,20S799.62,528.32,788.57,528.32z
				"/>
		</g>
	</g>
</g>
</svg>
